<?xml version="1.0" encoding="utf-8"?>
<svg class="loader-svg" version="1.1" id="logo" xmlns="http://www.w3.org/2000/svg"
            xmlns:xlink="http://www.w3.org/1999/xlink" x="0px" y="0px" viewBox="0 0 187.1 195.8"
            style="enable-background:new 0 0 187.1 195.8;" xml:space="preserve" fill="#010202">
            <path class="st0"
                d="M76.7,97.6c-0.2-0.4-0.5-0.7-0.8-1c3.4-1.3,6.1-1.3,9.5-0.3l3.4,8.6c-0.3,0.4-0.4,0.7-0.4,1.2
           c0,1.4,1.2,2.1,2.4,2.4V129h-0.8l-0.5,0L76.9,98C76.9,98,76.8,97.9,76.7,97.6L76.7,97.6z M92.9,105h-1.7c-1,0-1.6,0.7-1.6,1.2
           s0.7,1.2,1.6,1.2H92v22.9h-2.1c-0.8,0-1.4,0.6-1.4,1.4v17.8h8.9v-17.8c0-0.8-0.6-1.4-1.4-1.4h-2.1v-22.9h0.8c1,0,1.6-0.7,1.6-1.2
           s-0.7-1.2-1.6-1.2H92.9L92.9,105z M93.2,54.1l-0.3,0l-0.3,0C70.7,54.1,53,71.9,53,93.8c0,12.9,6.2,22.8,15.7,31.6
           c4,4,10.5,12.5,10.5,23.7v0.3h8v-17.8c0-0.9,0.4-1.5,1-2.1l-12.5-31c-0.3-0.6-0.9-1.4-1.7-1.4c-0.6-0.5-0.1-1,0.5-1.2
           c3.2-1.7,7.9-1.8,11.3-0.9c2.2-1,4.7-1.7,7.2-1.8c2.5,0.1,4.9,0.8,7.1,1.8c3.4-0.9,8.1-0.8,11.3,0.9c0.5,0.2,1,0.7,0.5,1.2
           c-0.8,0.1-1.5,0.9-1.7,1.4l-12.5,31c0.6,0.6,1,1.2,1,2.1v17.8h8v-0.3c0-11.2,6.6-19.7,10.5-23.7c9.5-8.8,15.7-18.7,15.7-31.6
           C132.8,71.9,115.1,54.1,93.2,54.1L93.2,54.1z M109.1,97.6c-0.1,0.2-0.2,0.4-0.2,0.4l-12.5,31l-0.5,0h-0.8v-20.4
           c1.1-0.3,2.4-1,2.4-2.4c0-0.5-0.2-0.8-0.4-1.2l3.4-8.6c3.5-1,6.1-1,9.5,0.3C109.6,97,109.4,97.3,109.1,97.6L109.1,97.6z M94.6,103.8
           c0.5,0,1,0.2,1.4,0.3l3.2-8.2c-2-0.9-4.2-1.5-6.3-1.6c-2.1,0.1-4.3,0.7-6.3,1.6l3.2,8.2c0.5-0.2,0.9-0.3,1.4-0.3H94.6z" />
            <path class="st0" d="M136.8,93.8c0-24.1-19.5-43.6-43.6-43.6h-0.6C68.5,50.2,49,69.7,49,93.8c0,14.4,6.9,25.2,16.9,34.5
           c3.7,3.7,9.3,11.2,9.3,20.9v4.3h35.3v-4.3c0-9.6,5.7-17.2,9.3-20.9C129.8,119.1,136.8,108.2,136.8,93.8L136.8,93.8z M114.5,162
           l-43.2,8.9v-6.2l29.4-6.2H71.3v-9.4c0-8.1-4.7-14.7-8.1-18c-10.4-9.7-18.1-21.5-18.1-37.3c0-26.3,21.3-47.5,47.5-47.5h0.6
           c26.2,0,47.5,21.3,47.5,47.5c0,15.8-7.7,27.6-18.1,37.3c-3.3,3.4-8.1,10-8.1,18V162L114.5,162z M114.5,165.1L71.3,174v6.2l43.2-8.9
           V165.1L114.5,165.1z M114.5,174.3v6.1l-8.5,1.8l-3.1,5.3H82.9l-3.4-5.9L114.5,174.3z" />
            <g class="st-group">
                <path class="st st1"
                    d="M60.3,133.8l-30.2,22.5l22.7-30.6C55.1,128.6,57.6,131.3,60.3,133.8L60.3,133.8z" />
                <path class="st st2"
                    d="M41.4,99L4.1,93.5L41.5,88c-0.2,1.9-0.3,3.9-0.3,5.8C41.2,95.6,41.2,97.3,41.4,99L41.4,99z" />
                <path class="st st3" d="M52.8,61.1L30.1,30.6l30.6,22.8C57.8,55.7,55.2,58.3,52.8,61.1L52.8,61.1z" />
                <path class="st st4"
                    d="M87.3,42.6l5.6-38l5.7,38.1c-1.8-0.2-3.6-0.3-5.4-0.3h-0.6C90.8,42.3,89.1,42.4,87.3,42.6L87.3,42.6z" />
                <path class="st st5" d="M155.7,30.6L133,61.2c-2.4-2.9-5-5.5-7.9-7.8L155.7,30.6L155.7,30.6z" />
                <path class="st st6"
                    d="M144.3,88l37.4,5.5L144.4,99c0.2-1.7,0.3-3.4,0.3-5.1C144.6,91.8,144.5,89.9,144.3,88L144.3,88z" />
                <path class="st st7" d="M133,125.8l22.7,30.6l-30.2-22.6C128.2,131.3,130.7,128.6,133,125.8z" />
            </g>
        </svg>